<svg width="46" height="62" viewBox="0 0 46 62" fill="none" xmlns="http://www.w3.org/2000/svg"><path d="M8.89478 1.29674V15.6604C8.89478 15.8132 8.95561 15.9598 9.06391 16.0678C9.1722 16.1759 9.31907 16.2366 9.47222 16.2366C9.62537 16.2366 9.77224 16.1759 9.88053 16.0678C9.98883 15.9598 10.0497 15.8132 10.0497 15.6604V1.29674C10.0497 1.1439 9.98883 0.997323 9.88053 0.889249C9.77224 0.781176 9.62537 0.720459 9.47222 0.720459C9.31907 0.720459 9.1722 0.781176 9.06391 0.889249C8.95561 0.997323 8.89478 1.1439 8.89478 1.29674Z" fill="black"/><path d="M23.2876 1.29674V15.6604C23.2876 15.8132 23.3484 15.9598 23.4567 16.0678C23.565 16.1759 23.7119 16.2366 23.865 16.2366C24.0182 16.2366 24.1651 16.1759 24.2734 16.0678C24.3817 15.9598 24.4425 15.8132 24.4425 15.6604V1.29674C24.4425 1.1439 24.3817 0.997323 24.2734 0.889249C24.1651 0.781176 24.0182 0.720459 23.865 0.720459C23.7119 0.720459 23.565 0.781176 23.4567 0.889249C23.3484 0.997323 23.2876 1.1439 23.2876 1.29674Z" fill="black"/><path d="M24.7511 0.00197373H8.23461C8.06008 -0.00769941 7.8854 0.018255 7.72126 0.078253C7.55711 0.138251 7.40696 0.231032 7.27997 0.350919C7.15298 0.470807 7.05184 0.61528 6.98271 0.775512C6.91358 0.935743 6.87793 1.10836 6.87793 1.28282C6.87793 1.45727 6.91358 1.62989 6.98271 1.79012C7.05184 1.95035 7.15298 2.09483 7.27997 2.21472C7.40696 2.33461 7.55711 2.42738 7.72126 2.48738C7.8854 2.54738 8.06008 2.57334 8.23461 2.56366H24.7511C25.0792 2.54548 25.3878 2.40261 25.6136 2.1644C25.8394 1.92619 25.9653 1.61073 25.9653 1.28282C25.9653 0.954905 25.8394 0.639443 25.6136 0.401234C25.3878 0.163025 25.0792 0.0201559 24.7511 0.00197373Z" fill="#20DEA6"/><path d="M23.3826 13.8485C22.1961 13.0591 20.0563 12.7433 18.1974 12.6052V12.5144C18.1974 12.5144 17.5013 12.5144 16.4928 12.5144C15.4842 12.5144 14.7921 12.5144 14.7921 12.5144V12.6052C12.9332 12.7433 10.7777 13.0788 9.603 13.8485C7.71016 15.11 5.65627 16.1123 3.49631 16.8286C2.21798 17.2857 1.03336 17.9704 0 18.8496V55.4592H32.9856V18.8496C31.9541 17.9699 30.7706 17.2851 29.4932 16.8286C27.3317 16.1132 25.2764 15.1108 23.3826 13.8485Z" fill="#20DEA6"/><path d="M4.97536 55.4595C4.52557 55.4595 4.08587 55.5926 3.71188 55.842C3.3379 56.0914 3.04641 56.4458 2.87429 56.8605C2.70216 57.2752 2.65712 57.7316 2.74487 58.1718C2.83262 58.6121 3.04922 59.0165 3.36727 59.3339C3.68532 59.6513 4.09054 59.8675 4.53169 59.9551C4.97284 60.0426 5.4301 59.9977 5.84565 59.8259C6.2612 59.6541 6.61638 59.3632 6.86627 58.99C7.11616 58.6168 7.24954 58.178 7.24954 57.7291C7.24954 57.1271 7.00994 56.5499 6.58345 56.1242C6.15695 55.6986 5.57851 55.4595 4.97536 55.4595Z" fill="#A7A7A7"/><path d="M27.3972 55.4607C26.9474 55.4607 26.5077 55.5938 26.1338 55.8432C25.7598 56.0926 25.4683 56.447 25.2962 56.8617C25.124 57.2765 25.079 57.7328 25.1667 58.1731C25.2545 58.6133 25.4711 59.0177 25.7891 59.3351C26.1072 59.6525 26.5124 59.8687 26.9536 59.9563C27.3947 60.0439 27.852 59.9989 28.2675 59.8271C28.6831 59.6553 29.0383 59.3644 29.2881 58.9912C29.538 58.618 29.6714 58.1792 29.6714 57.7303C29.6714 57.1284 29.4318 56.5511 29.0053 56.1254C28.5788 55.6998 28.0004 55.4607 27.3972 55.4607Z" fill="#A7A7A7"/><path d="M16.3465 20.7481C15.1837 20.7481 7.18247 20.7994 0 24.9202V55.4592H32.9856V25.0662C25.7319 20.7994 17.529 20.7323 16.3465 20.7481Z" fill="#40BF9A"/><path d="M44.8631 38.7302C44.0559 36.4867 36.3874 36.5673 35.3825 36.5874C32.0366 36.6559 28.6826 36.7646 25.3327 36.676C21.9828 36.5874 18.6652 36.2209 15.3153 36.5109C13.4467 36.672 11.4771 36.7404 11.3923 38.7302C11.3923 38.7302 11.2672 41.6666 11.1582 45.3722C10.9766 51.5389 10.8434 59.8404 11.3923 60.3882C12.2366 61.1503 13.2734 61.6678 14.3908 61.885C15.5081 62.1022 16.6638 62.0108 17.7329 61.6207C20.7276 60.5654 28.1257 59.8605 28.1257 59.8605C28.1257 59.8605 35.5237 60.5654 38.5184 61.6207C39.5883 62.0103 40.7444 62.1014 41.8624 61.8842C42.9803 61.6671 44.0177 61.1498 44.8631 60.3882C45.412 59.8404 45.2667 51.5268 45.0931 45.3722C44.9841 41.6625 44.8631 38.7302 44.8631 38.7302Z" fill="#FACF5A"/><path d="M25.785 32.4949C23.9693 33.2526 22.3863 34.4753 21.1961 36.0394C20.5019 36.9417 22.0356 37.8198 22.7217 36.9296C22.4472 37.2881 22.7863 36.8652 22.871 36.7685C23.0809 36.5268 23.3029 36.3013 23.5289 36.0797C24.2425 35.3821 25.0592 34.798 25.9505 34.3477C28.9452 32.8655 31.6615 34.4847 33.5302 36.9296C34.2122 37.8238 35.75 36.9296 35.0598 36.0394C32.7996 33.0951 29.5264 31.0006 25.785 32.4949Z" fill="#FCDC85"/><path d="M35.379 36.5832C32.0331 36.6517 28.6792 36.7605 25.3293 36.6719C21.9794 36.5832 18.6618 36.2167 15.3119 36.5067C13.4432 36.6678 11.4736 36.7363 11.3889 38.7261C11.3889 38.7261 11.2638 41.6624 11.1548 45.3681C14.7872 49.686 21.043 52.5337 28.1061 52.5337C35.1691 52.5337 41.425 49.686 45.0574 45.3681C44.9525 41.6584 44.8273 38.7261 44.8273 38.7261C44.1856 36.398 36.388 36.5832 35.379 36.5832Z" fill="#FCDC85"/><path d="M39.6166 46.3428C32.6342 50.0404 23.9568 49.4362 16.8695 46.3428C16.1794 46.0447 15.578 47.0557 16.2722 47.3619C23.7671 50.6285 32.8199 51.2729 40.2098 47.3619C40.896 47.0074 40.2986 45.9884 39.6166 46.3428Z" fill="#FBB03B"/></svg>

